<svg width="28" height="28" viewBox="0 0 28 28" fill="none" xmlns="http://www.w3.org/2000/svg">
<path d="M19.5183 2.40918H8.48167C7.74972 2.45315 7.06469 2.78414 6.57537 3.33025C6.08606 3.87636 5.83198 4.59349 5.86833 5.32585V22.6742C5.83198 23.4065 6.08606 24.1237 6.57537 24.6698C7.06469 25.2159 7.74972 25.5469 8.48167 25.5908H19.5183C20.2503 25.5469 20.9353 25.2159 21.4246 24.6698C21.9139 24.1237 22.168 23.4065 22.1317 22.6742V5.32585C22.168 4.59349 21.9139 3.87636 21.4246 3.33025C20.9353 2.78414 20.2503 2.45315 19.5183 2.40918ZM20.965 22.6742C21.0009 23.0972 20.8695 23.5174 20.599 23.8446C20.3285 24.1718 19.9405 24.3799 19.5183 24.4242H8.48167C8.05946 24.3799 7.67145 24.1718 7.40097 23.8446C7.13048 23.5174 6.99909 23.0972 7.035 22.6742V5.32585C6.99909 4.90284 7.13048 4.48262 7.40097 4.15542C7.67145 3.82822 8.05946 3.62014 8.48167 3.57585H10.2667V4.17085C10.2667 4.48027 10.3896 4.77701 10.6084 4.9958C10.8272 5.2146 11.1239 5.33751 11.4333 5.33751H16.5667C16.8761 5.33751 17.1728 5.2146 17.3916 4.9958C17.6104 4.77701 17.7333 4.48027 17.7333 4.17085V3.57585H19.5183C19.9405 3.62014 20.3285 3.82822 20.599 4.15542C20.8695 4.48262 21.0009 4.90284 20.965 5.32585V22.6742Z" fill="white"/>
<path d="M11.6667 22.0897H16.3333C16.488 22.0897 16.6364 22.0282 16.7458 21.9188C16.8552 21.8094 16.9167 21.661 16.9167 21.5063C16.9167 21.3516 16.8552 21.2033 16.7458 21.0939C16.6364 20.9845 16.488 20.923 16.3333 20.923H11.6667C11.512 20.923 11.3636 20.9845 11.2542 21.0939C11.1448 21.2033 11.0833 21.3516 11.0833 21.5063C11.0833 21.661 11.1448 21.8094 11.2542 21.9188C11.3636 22.0282 11.512 22.0897 11.6667 22.0897Z" fill="white"/>
</svg>
