<svg width="13" height="13" viewBox="0 0 13 13" fill="none" xmlns="http://www.w3.org/2000/svg">
<path d="M1.32925 4.30057C1.48162 4.14825 1.68824 4.06268 1.90369 4.06268C2.11913 4.06268 2.32576 4.14825 2.47813 4.30057L6.5 8.32245L10.5219 4.30057C10.6751 4.15257 10.8804 4.07067 11.0934 4.07252C11.3064 4.07438 11.5102 4.15983 11.6609 4.31047C11.8115 4.46111 11.8969 4.6649 11.8988 4.87793C11.9007 5.09097 11.8188 5.29621 11.6708 5.44945L7.07444 10.0458C6.92207 10.1981 6.71545 10.2836 6.5 10.2836C6.28455 10.2836 6.07793 10.1981 5.92556 10.0458L1.32925 5.44945C1.17693 5.29708 1.09136 5.09046 1.09136 4.87501C1.09136 4.65956 1.17693 4.45294 1.32925 4.30057Z" fill="black" fill-opacity="0.5"/>
</svg>
