<svg width="19" height="11" viewBox="0 0 19 11" fill="none" xmlns="http://www.w3.org/2000/svg">
<path d="M15.8333 2.2V8.8H2.11111V2.2H15.8333ZM16.8889 7.15H17.9444V3.85H16.8889V1.375C16.8889 1.29479 16.8641 1.22891 16.8147 1.17734C16.7652 1.12578 16.702 1.1 16.625 1.1H1.31944C1.24248 1.1 1.17925 1.12578 1.12977 1.17734C1.0803 1.22891 1.05556 1.29479 1.05556 1.375V9.625C1.05556 9.70521 1.0803 9.77109 1.12977 9.82266C1.17925 9.87422 1.24248 9.9 1.31944 9.9H16.625C16.702 9.9 16.7652 9.87422 16.8147 9.82266C16.8641 9.77109 16.8889 9.70521 16.8889 9.625V7.15ZM19 3.85V7.15C19 7.45365 18.8969 7.71289 18.6908 7.92773C18.4846 8.14258 18.2358 8.25 17.9444 8.25V9.625C17.9444 10.0031 17.8152 10.3268 17.5569 10.5961C17.2985 10.8654 16.9878 11 16.625 11H1.31944C0.956597 11 0.645978 10.8654 0.387587 10.5961C0.129196 10.3268 0 10.0031 0 9.625V1.375C0 0.996875 0.129196 0.673177 0.387587 0.403906C0.645978 0.134635 0.956597 0 1.31944 0H16.625C16.9878 0 17.2985 0.134635 17.5569 0.403906C17.8152 0.673177 17.9444 0.996875 17.9444 1.375V2.75C18.2358 2.75 18.4846 2.85742 18.6908 3.07227C18.8969 3.28711 19 3.54635 19 3.85Z" fill="black"/>
</svg>
