<svg width="20" height="20" viewBox="0 0 20 20" fill="none" xmlns="http://www.w3.org/2000/svg">
<path d="M6.66666 2.5C7.08333 2.5 8.75 6.25 8.75 6.66667C8.75 7.5 7.5 8.33333 7.08333 9.16667C6.66666 10 7.5 10.8333 8.33333 11.6667C8.65833 11.9917 10 13.3333 10.8333 12.9167C11.6667 12.5 12.5 11.25 13.3333 11.25C13.75 11.25 17.5 12.9167 17.5 13.3333C17.5 15 16.25 16.25 15 16.6667C13.75 17.0833 12.9167 17.0833 11.25 16.6667C9.58333 16.25 8.33333 15.8333 6.25 13.75C4.16666 11.6667 3.74999 10.4167 3.33333 8.75C2.91666 7.08333 2.91666 6.25 3.33333 5C3.74999 3.75 5 2.5 6.66666 2.5Z" stroke="black" stroke-opacity="0.5" stroke-width="2" stroke-linecap="round" stroke-linejoin="round"/>
</svg>
