<svg width="16" height="16" viewBox="0 0 16 16" fill="none" xmlns="http://www.w3.org/2000/svg">
<path d="M8.00001 14C7.53335 14 7.1389 13.8389 6.81668 13.5167C6.49446 13.1944 6.33334 12.8 6.33334 12.3333C6.33334 11.8667 6.49446 11.4722 6.81668 11.15C7.1389 10.8278 7.53335 10.6667 8.00001 10.6667C8.46668 10.6667 8.86112 10.8278 9.18334 11.15C9.50557 11.4722 9.66668 11.8667 9.66668 12.3333C9.66668 12.8 9.50557 13.1944 9.18334 13.5167C8.86112 13.8389 8.46668 14 8.00001 14ZM8.00001 6.66667C8.83334 6.66667 9.62512 6.8 10.3753 7.06667C11.1256 7.33333 11.806 7.7 12.4167 8.16667C12.6389 8.33333 12.7529 8.55289 12.7587 8.82533C12.7645 9.09778 12.6671 9.33378 12.4667 9.53333C12.2778 9.72222 12.0445 9.81956 11.7667 9.82533C11.4889 9.83111 11.2389 9.756 11.0167 9.6C10.5945 9.31111 10.1278 9.08333 9.61668 8.91667C9.10557 8.75 8.56668 8.66667 8.00001 8.66667C7.43334 8.66667 6.89446 8.75 6.38335 8.91667C5.87223 9.08333 5.40557 9.31111 4.98335 9.6C4.76112 9.75556 4.51112 9.82778 4.23335 9.81667C3.95557 9.80556 3.72223 9.70556 3.53335 9.51667C3.34446 9.31667 3.25001 9.08067 3.25001 8.80867C3.25001 8.53667 3.36112 8.31711 3.58335 8.15C4.19446 7.68333 4.87512 7.31933 5.62534 7.058C6.37557 6.79667 7.16712 6.66622 8.00001 6.66667ZM8.00001 2.66667C9.3889 2.66667 10.6973 2.89444 11.9253 3.35C13.1533 3.80556 14.256 4.45 15.2333 5.28333C15.4556 5.47222 15.5722 5.70556 15.5833 5.98333C15.5945 6.26111 15.5 6.5 15.3 6.7C15.1111 6.88889 14.8778 6.98622 14.6 6.992C14.3222 6.99778 14.0722 6.91156 13.85 6.73333C13.05 6.07778 12.1529 5.56956 11.1587 5.20867C10.1645 4.84778 9.11157 4.66711 8.00001 4.66667C6.88846 4.66622 5.83579 4.84689 4.84201 5.20867C3.84823 5.57044 2.9509 6.07867 2.15001 6.73333C1.92779 6.91111 1.67779 6.99733 1.40001 6.992C1.12223 6.98667 0.888901 6.88933 0.700012 6.7C0.500012 6.5 0.405568 6.26111 0.416679 5.98333C0.42779 5.70556 0.544457 5.47222 0.766679 5.28333C1.74446 4.45 2.84735 3.80556 4.07535 3.35C5.30334 2.89444 6.61157 2.66667 8.00001 2.66667Z" fill="black"/>
</svg>
