<svg width="20" height="22" viewBox="0 0 20 22" fill="none" xmlns="http://www.w3.org/2000/svg">
<path d="M10 0C11.3261 0 12.5979 0.579462 13.5355 1.61091C14.4732 2.64236 15 4.04131 15 5.5C15 6.95869 14.4732 8.35764 13.5355 9.38909C12.5979 10.4205 11.3261 11 10 11C8.67392 11 7.40215 10.4205 6.46447 9.38909C5.52678 8.35764 5 6.95869 5 5.5C5 4.04131 5.52678 2.64236 6.46447 1.61091C7.40215 0.579462 8.67392 0 10 0ZM10 2.75C9.33696 2.75 8.70107 3.03973 8.23223 3.55546C7.76339 4.07118 7.5 4.77065 7.5 5.5C7.5 6.22935 7.76339 6.92882 8.23223 7.44454C8.70107 7.96027 9.33696 8.25 10 8.25C10.663 8.25 11.2989 7.96027 11.7678 7.44454C12.2366 6.92882 12.5 6.22935 12.5 5.5C12.5 4.77065 12.2366 4.07118 11.7678 3.55546C11.2989 3.03973 10.663 2.75 10 2.75ZM10 12.375C13.3375 12.375 20 14.2037 20 17.875V22H0V17.875C0 14.2037 6.6625 12.375 10 12.375ZM10 14.9875C6.2875 14.9875 2.375 16.995 2.375 17.875V19.3875H17.625V17.875C17.625 16.995 13.7125 14.9875 10 14.9875Z" fill="white"/>
<path d="M10 12.875C11.6 12.875 14.0311 13.3182 16.0498 14.2061C17.0578 14.6494 17.934 15.1907 18.5508 15.8174C19.1627 16.4392 19.5 17.1228 19.5 17.875V21.5H0.5V17.875C0.5 17.1228 0.837307 16.4392 1.44922 15.8174C2.06595 15.1907 2.94223 14.6494 3.9502 14.2061C5.96888 13.3182 8.39997 12.875 10 12.875ZM10 14.4873C8.06202 14.4873 6.0885 15.0089 4.59961 15.6406C3.855 15.9566 3.21306 16.3079 2.74805 16.6494C2.51681 16.8192 2.31417 16.9979 2.16406 17.1807C2.02451 17.3506 1.875 17.5912 1.875 17.875V19.8877H18.125V17.875C18.125 17.5912 17.9755 17.3506 17.8359 17.1807C17.6858 16.9979 17.4832 16.8192 17.252 16.6494C16.7869 16.3079 16.145 15.9566 15.4004 15.6406C13.9115 15.0089 11.938 14.4873 10 14.4873ZM10 0.5C11.1773 0.5 12.3176 1.01402 13.166 1.94727C14.0157 2.88207 14.5 4.15946 14.5 5.5C14.5 6.84054 14.0157 8.11793 13.166 9.05273C12.3176 9.98598 11.1773 10.5 10 10.5C8.82274 10.5 7.68239 9.98598 6.83398 9.05273C5.98427 8.11793 5.5 6.84054 5.5 5.5C5.5 4.15946 5.98427 2.88207 6.83398 1.94727C7.68239 1.01402 8.82274 0.5 10 0.5ZM10 2.25C9.18824 2.25 8.42041 2.60495 7.8623 3.21875C7.30563 3.8311 7 4.65261 7 5.5C7 6.34739 7.30563 7.1689 7.8623 7.78125C8.42041 8.39505 9.18824 8.75 10 8.75C10.8118 8.75 11.5796 8.39505 12.1377 7.78125C12.6944 7.1689 13 6.34739 13 5.5C13 4.65261 12.6944 3.8311 12.1377 3.21875C11.5796 2.60495 10.8118 2.25 10 2.25Z" stroke="black" stroke-opacity="0.5"/>
</svg>
